HIERARCHY
ROOT joint_Root
{
	OFFSET 0.0 0.0 0.0
	CHANNELS 6 Xposition Yposition Zposition Zrotation Xrotation Yrotation 
	JOINT Hips
	{
		OFFSET -17.1583 93.1646 452.98
		CHANNELS 6 Xposition Yposition Zposition Zrotation Xrotation Yrotation 
		JOINT Spine
		{
			OFFSET 15.7357 0.0 0.0
			CHANNELS 6 Xposition Yposition Zposition Zrotation Xrotation Yrotation 
			JOINT Chest
			{
				OFFSET 8.98455 -0.406207 0.0
				CHANNELS 6 Xposition Yposition Zposition Zrotation Xrotation Yrotation 
				JOINT Neck
				{
					OFFSET 16.3773 0.0 0.0
					CHANNELS 6 Xposition Yposition Zposition Zrotation Xrotation Yrotation 
					JOINT Head
					{
						OFFSET 6.45672 0.0 0.0
						CHANNELS 6 Xposition Yposition Zposition Zrotation Xrotation Yrotation 
						End Site
						{
							OFFSET 0.0 0.0 0.0
						}
					}
				}
				JOINT Shoulder_L
				{
					OFFSET 12.9942 -0.242716 4.98039
					CHANNELS 6 Xposition Yposition Zposition Zrotation Xrotation Yrotation 
					JOINT UpperArm_L
					{
						OFFSET 5.34809 0.0 0.0
						CHANNELS 6 Xposition Yposition Zposition Zrotation Xrotation Yrotation 
						JOINT LowerArm_L
						{
							OFFSET 24.3286 1.87007e-05 0.0
							CHANNELS 6 Xposition Yposition Zposition Zrotation Xrotation Yrotation 
							JOINT Hand_L
							{
								OFFSET 22.2916 0.0 0.0
								CHANNELS 6 Xposition Yposition Zposition Zrotation Xrotation Yrotation 
								End Site
								{
									OFFSET 0.0 0.0 0.0
								}
							}
						}
					}
				}
				JOINT Shoulder_R
				{
					OFFSET 12.9945 -0.242716 -4.98039
					CHANNELS 6 Xposition Yposition Zposition Zrotation Xrotation Yrotation 
					JOINT UpperArm_R
					{
						OFFSET -5.34813 0.0 0.0
						CHANNELS 6 Xposition Yposition Zposition Zrotation Xrotation Yrotation 
						JOINT LowerArm_R
						{
							OFFSET -24.3289 0.000322201 0.0
							CHANNELS 6 Xposition Yposition Zposition Zrotation Xrotation Yrotation 
							JOINT Hand_R
							{
								OFFSET -22.2915 -0.000108084 0.0
								CHANNELS 6 Xposition Yposition Zposition Zrotation Xrotation Yrotation 
								End Site
								{
									OFFSET 0.0 0.0 0.0
								}
							}
						}
					}
				}
			}
		}
		JOINT UpperLeg_L
		{
			OFFSET -2.19248 -6.46944 0.0
			CHANNELS 6 Xposition Yposition Zposition Zrotation Xrotation Yrotation 
			JOINT LowerLeg_L
			{
				OFFSET 39.0811 0.0 -1.23785e-05
				CHANNELS 6 Xposition Yposition Zposition Zrotation Xrotation Yrotation 
				JOINT Foot_L
				{
					OFFSET 40.9854 0.0 -1.26872e-05
					CHANNELS 6 Xposition Yposition Zposition Zrotation Xrotation Yrotation 
					JOINT Toes_L
					{
						OFFSET 11.7543 0.0 0.0
						CHANNELS 6 Xposition Yposition Zposition Zrotation Xrotation Yrotation 
						End Site
						{
							OFFSET 0.0 0.0 0.0
						}
					}
				}
			}
		}
		JOINT UpperLeg_R
		{
			OFFSET -2.19251 6.46944 0.0
			CHANNELS 6 Xposition Yposition Zposition Zrotation Xrotation Yrotation 
			JOINT LowerLeg_R
			{
				OFFSET -39.0811 -0.00228153 -0.0401928
				CHANNELS 6 Xposition Yposition Zposition Zrotation Xrotation Yrotation 
				JOINT Foot_R
				{
					OFFSET -40.9854 0.0 0.0
					CHANNELS 6 Xposition Yposition Zposition Zrotation Xrotation Yrotation 
					JOINT Toes_R
					{
						OFFSET -11.7543 0.0 0.0
						CHANNELS 6 Xposition Yposition Zposition Zrotation Xrotation Yrotation 
						End Site
						{
							OFFSET 0.0 0.0 0.0
						}
					}
				}
			}
		}
	}
}
MOTION
Frames:	5
Frame Time:	0.0333333
0.000000 0.000000 0.000000 0.000000 0.000000 -0.000000 -0.305299 88.058400 482.632000 -85.427800 -7.749380 162.704000 15.735700 0.000005 -0.000001 55.352400 80.728400 -50.878000 8.984550 -0.406207 -0.000000 8.018600 -10.489600 9.697570 16.377300 -0.000001 -0.000001 -4.736550 4.636590 -2.291340 6.456720 -0.000001 -0.000000 -18.299200 10.454000 -0.732061 12.994200 -0.242716 4.980390 -91.600300 6.234180 -75.572500 5.348090 -0.000007 -0.000001 -45.450800 -14.381700 -24.788300 24.328600 0.000019 0.000005 25.654500 14.751500 -62.069300 22.291600 -0.000001 0.000005 11.242000 4.832640 10.695200 12.994500 -0.242716 -4.980390 89.520000 1.188570 -68.008200 -5.348130 -0.000001 -0.000004 -43.351600 -17.712300 26.403100 -24.328900 0.000322 -0.000009 1.809460 16.369400 -6.399540 -22.291500 -0.000108 -0.000004 8.317350 5.120470 4.637820 -2.192480 -6.469440 -0.000000 -169.792000 -13.971400 5.710590 39.081100 -0.000007 -0.000012 -0.000185 0.002909 3.614030 40.985400 -0.000006 -0.000013 -7.887930 21.721700 -70.682000 11.754300 -0.000000 0.000003 0.002380 0.066363 -13.885100 -2.192510 6.469440 -0.000001 -171.738000 3.486140 121.423000 -39.081100 -0.002282 -0.040193 0.039517 -0.033091 47.618000 -40.985400 0.000008 0.000006 -10.004100 -3.316230 -71.389300 -11.754300 -0.000006 -0.000006 0.000149 0.165118 -9.876370
0.000000 0.000000 0.000000 0.000000 0.000000 -0.000000 -0.065526 86.370700 477.419000 -85.029100 -8.167960 162.324000 15.735700 0.000005 -0.000001 57.527000 80.330100 -52.728200 8.984550 -0.406207 -0.000000 9.111230 -10.274400 10.431400 16.377300 -0.000001 -0.000001 -6.223470 4.389020 -2.225290 6.456720 -0.000001 -0.000000 -19.981100 9.994700 -0.464411 12.994200 -0.242716 4.980390 -91.458700 5.905820 -76.099900 5.348090 -0.000007 -0.000001 -48.049300 -19.180100 -28.148100 24.328600 0.000019 0.000005 28.865500 15.695000 -63.861000 22.291600 -0.000001 0.000005 14.609900 4.760330 12.057400 12.994500 -0.242716 -4.980390 89.689300 0.818452 -69.210600 -5.348130 -0.000001 -0.000004 -41.575200 -22.529100 27.520000 -24.328900 0.000322 -0.000009 1.190520 16.970300 -4.076020 -22.291500 -0.000108 -0.000004 14.890800 5.037200 6.514380 -2.192480 -6.469440 -0.000000 -167.821000 -13.769100 6.806370 39.081100 -0.000007 -0.000012 -0.016521 0.125782 7.482530 40.985400 -0.000006 -0.000013 -7.676550 22.517400 -71.222000 11.754300 -0.000000 0.000003 -0.001401 -0.020957 -17.428900 -2.192510 6.469440 -0.000001 -171.433000 3.176790 120.579000 -39.081100 -0.002282 -0.040193 0.016173 -0.014262 42.129200 -40.985400 0.000008 0.000006 -9.876320 -2.144240 -74.369900 -11.754300 -0.000006 -0.000006 -0.000065 0.168752 -9.728770
0.000000 0.000000 0.000000 0.000000 0.000000 -0.000000 0.112629 84.672000 471.177000 -84.777700 -8.809870 161.638000 15.735700 0.000005 -0.000001 58.212100 80.342600 -52.958900 8.984550 -0.406207 -0.000000 9.244410 -10.053600 11.335000 16.377300 -0.000001 -0.000001 -7.177780 4.090230 -2.531480 6.456720 -0.000001 -0.000000 -20.976700 9.276990 -0.948667 12.994200 -0.242716 4.980390 -91.400400 5.736700 -76.256900 5.348090 -0.000007 -0.000001 -52.803500 -21.356500 -29.674000 24.328600 0.000019 0.000005 30.014400 15.531600 -65.131200 22.291600 -0.000001 0.000005 19.818100 4.693470 13.271800 12.994500 -0.242716 -4.980390 89.742400 0.730591 -70.578900 -5.348130 -0.000001 -0.000004 -41.659700 -23.808400 26.857300 -24.328900 0.000322 -0.000009 0.172034 17.908900 -0.562935 -22.291500 -0.000108 -0.000004 19.596000 4.909400 9.186740 -2.192480 -6.469440 -0.000000 -166.605000 -11.895900 7.871920 39.081100 -0.000007 -0.000012 -0.031066 0.159766 11.003600 40.985400 -0.000006 -0.000013 -6.422600 20.124100 -69.511800 11.754300 -0.000000 0.000003 -0.026723 -0.202044 -24.846800 -2.192510 6.469440 -0.000001 -170.191000 3.675210 120.036000 -39.081100 -0.002282 -0.040193 0.005178 -0.002172 41.226000 -40.985400 0.000008 0.000006 -9.399610 -5.674220 -78.212300 -11.754300 -0.000006 -0.000006 0.000052 0.166790 -9.808450
0.000000 0.000000 0.000000 0.000000 0.000000 -0.000000 0.254617 83.195200 464.048000 -84.669500 -9.378940 159.825000 15.735700 0.000005 -0.000001 58.222800 80.993000 -52.384000 8.984550 -0.406207 -0.000000 8.141430 -9.427180 12.360800 16.377300 -0.000001 -0.000001 -8.102350 3.776310 -3.178430 6.456720 -0.000001 -0.000000 -21.417000 8.431270 -2.103760 12.994200 -0.242716 4.980390 -91.529900 6.355090 -76.434600 5.348090 -0.000007 -0.000001 -56.456200 -19.989400 -28.070500 24.328600 0.000019 0.000005 29.164300 14.109500 -66.403200 22.291600 -0.000001 0.000005 25.034600 4.597740 14.952800 12.994500 -0.242716 -4.980390 89.503700 1.476790 -71.422500 -5.348130 -0.000001 -0.000004 -43.470000 -22.333500 24.231500 -24.328900 0.000322 -0.000009 -0.001062 19.406900 0.000088 -22.291500 -0.000108 -0.000004 19.853300 4.721270 12.774000 -2.192480 -6.469440 -0.000000 -166.185000 -10.878200 7.220220 39.081100 -0.000007 -0.000012 -0.027682 0.099810 15.501000 40.985400 -0.000006 -0.000013 -4.404600 16.297900 -64.597200 11.754300 -0.000000 0.000003 -0.107254 -0.462221 -35.905600 -2.192510 6.469440 -0.000001 -167.459000 3.246250 116.604000 -39.081100 -0.002282 -0.040193 0.729474 -0.647423 48.285200 -40.985400 0.000008 0.000006 3.792620 -11.105200 -73.581100 -11.754300 -0.000006 -0.000006 0.000889 0.151049 -10.447500
0.000000 0.000000 0.000000 0.000000 0.000000 -0.000000 0.298786 81.731100 456.109000 -83.796700 -8.787240 159.117000 15.735700 0.000005 -0.000001 61.142400 81.592800 -54.709800 8.984550 -0.406207 -0.000000 7.507280 -8.098890 13.402800 16.377300 -0.000001 -0.000001 -9.180130 3.898500 -3.721390 6.456720 -0.000001 -0.000000 -21.439800 7.951300 -3.472380 12.994200 -0.242716 4.980390 -91.779900 7.180050 -76.037800 5.348090 -0.000007 -0.000001 -58.881400 -15.948100 -23.119100 24.328600 0.000019 0.000005 29.375200 13.302100 -67.767700 22.291600 -0.000001 0.000005 25.846100 4.611990 14.707200 12.994500 -0.242716 -4.980390 89.344500 1.999690 -71.846800 -5.348130 -0.000001 -0.000004 -47.724800 -18.648600 19.084300 -24.328900 0.000322 -0.000009 -0.001035 18.566400 0.000083 -22.291500 -0.000108 -0.000004 19.253300 4.811670 11.095300 -2.192480 -6.469440 -0.000000 -165.326000 -11.316600 6.662610 39.081100 -0.000007 -0.000012 0.004753 -0.011853 21.850000 40.985400 -0.000006 -0.000013 -1.450090 12.878400 -56.600600 11.754300 -0.000000 0.000003 -0.222133 -0.680673 -45.925200 -2.192510 6.469440 -0.000001 -166.019000 2.999450 116.019000 -39.081100 -0.002282 -0.040193 0.910854 -0.574484 57.671100 -40.985400 0.000008 0.000006 3.091890 -10.225000 -77.595700 -11.754300 -0.000006 -0.000006 0.000748 0.153945 -10.329900
